HIERARCHY
ROOT root
{
	OFFSET 0.000000 0.000000 0.000000
	CHANNELS 6 Xposition Yposition Zposition Zrotation Yrotation Xrotation
	JOINT lhip
	{
		OFFSET 0.058581 -0.082280 -0.017664
		CHANNELS 3 Zrotation Yrotation Xrotation
		JOINT lknee
		{
			OFFSET 0.043451 -0.386469 0.008037
			CHANNELS 3 Zrotation Yrotation Xrotation
			JOINT lankle
			{
				OFFSET -0.014790 -0.426874 -0.037428
				CHANNELS 3 Zrotation Yrotation Xrotation
				JOINT ltoe
				{
					OFFSET 0.041054 -0.060286 0.122042
					CHANNELS 3 Zrotation Yrotation Xrotation
					End Site
					{
						OFFSET 0.000000 0.000000 0.000000
					}
				}
			}
		}
	}
	JOINT rhip
	{
		OFFSET -0.060310 -0.090513 -0.013543
		CHANNELS 3 Zrotation Yrotation Xrotation
		JOINT rknee
		{
			OFFSET -0.043257 -0.383688 -0.004843
			CHANNELS 3 Zrotation Yrotation Xrotation
			JOINT rankle
			{
				OFFSET 0.019056 -0.420046 -0.034562
				CHANNELS 3 Zrotation Yrotation Xrotation
				JOINT rtoe
				{
					OFFSET -0.034840 -0.062106 0.130323
					CHANNELS 3 Zrotation Yrotation Xrotation
					End Site
					{
						OFFSET 0.000000 0.000000 0.000000
					}
				}
			}
		}
	}
	JOINT lowerback
	{
		OFFSET 0.004439 0.124404 -0.038385
		CHANNELS 3 Zrotation Yrotation Xrotation
		JOINT upperback
		{
			OFFSET 0.004488 0.137956 0.026820
			CHANNELS 3 Zrotation Yrotation Xrotation
			JOINT chest
			{
				OFFSET -0.002265 0.056032 0.002855
				CHANNELS 3 Zrotation Yrotation Xrotation
				JOINT lowerneck
				{
					OFFSET -0.013390 0.211636 -0.033468
					CHANNELS 3 Zrotation Yrotation Xrotation
					JOINT upperneck
					{
						OFFSET 0.010113 0.088937 0.050410
						CHANNELS 3 Zrotation Yrotation Xrotation
						End Site
						{
							OFFSET 0.000000 0.000000 0.000000
						}
					}
				}
				JOINT lclavicle
				{
					OFFSET 0.071702 0.114000 -0.018898
					CHANNELS 3 Zrotation Yrotation Xrotation
					JOINT lshoulder
					{
						OFFSET 0.122921 0.045205 -0.019046
						CHANNELS 3 Zrotation Yrotation Xrotation
						JOINT lelbow
						{
							OFFSET 0.255332 -0.015649 -0.022946
							CHANNELS 3 Zrotation Yrotation Xrotation
							JOINT lwrist
							{
								OFFSET 0.265709 0.012698 -0.007375
								CHANNELS 3 Zrotation Yrotation Xrotation
								End Site
								{
									OFFSET 0.000000 0.000000 0.000000
								}
							}
						}
					}
				}
				JOINT rclavicle
				{
					OFFSET -0.082954 0.112472 -0.023707
					CHANNELS 3 Zrotation Yrotation Xrotation
					JOINT rshoulder
					{
						OFFSET -0.113228 0.046853 -0.008472
						CHANNELS 3 Zrotation Yrotation Xrotation
						JOINT relbow
						{
							OFFSET -0.260127 -0.014369 -0.031269
							CHANNELS 3 Zrotation Yrotation Xrotation
							JOINT rwrist
							{
								OFFSET -0.269108 0.006794 -0.006027
								CHANNELS 3 Zrotation Yrotation Xrotation
								End Site
								{
									OFFSET 0.000000 0.000000 0.000000
								}
							}
						}
					}
				}
			}
		}
	}
}
MOTION
Frames: 17
Frame Time: 0.033333
-0.015817 0.358810 1.056693 -27.491601 0.792604 60.490251 12.254385 -1.656076 -18.828812 -10.170799 15.273867 83.444768 -7.859620 -1.875945 -5.418126 0.000000 -0.000000 0.000000 -14.021251 -11.260823 -11.755249 2.714717 -16.179175 81.661758 16.928380 1.955668 20.274538 0.000000 -0.000000 0.000000 -1.039702 3.908517 34.066527 6.038151 0.635677 -3.702707 5.198007 0.721783 -0.732249 -1.736526 1.934137 12.342903 -0.675422 9.630146 -1.100612 -33.664132 -9.334217 6.366848 -40.247316 -8.645056 8.200746 13.576339 -41.934862 -9.956474 4.142934 -9.049588 -1.388084 31.880124 6.112873 7.201077 25.717165 -8.038002 9.647637 15.970450 22.747440 17.252120 6.334807 5.254399 9.036758 
-0.013727 0.360347 1.057822 -27.801150 0.561508 60.083119 13.040607 -1.149408 -20.604588 -9.830214 16.428065 83.278484 -11.639635 -2.496050 1.414639 0.000000 -0.000000 0.000000 -14.108687 -10.494158 -12.846190 2.397743 -16.398278 83.037249 16.028160 1.746861 22.566950 0.000000 -0.000000 0.000000 -1.065129 3.507452 33.989868 5.223498 0.593836 -3.417403 4.528007 0.842943 -0.463573 -0.833612 1.952553 11.570051 0.177269 10.243285 0.573391 -31.513937 -10.546887 5.852256 -40.256446 -9.244083 9.431478 13.970922 -44.728486 -6.780887 4.467933 -10.341777 -2.670640 28.952805 8.277512 6.317501 26.220040 -4.217380 9.662459 13.399368 19.506117 17.001234 4.570320 7.402114 7.608784 
-0.012118 0.362387 1.055943 -27.877662 0.441600 59.861367 13.399515 -0.663842 -22.933550 -9.417056 17.755854 84.338762 -11.456031 -2.813394 5.156936 0.000000 -0.000000 0.000000 -14.281692 -10.445798 -14.198162 2.121512 -16.593593 84.541699 15.121637 0.987295 24.315020 0.000000 -0.000000 0.000000 -1.390008 3.293369 34.062045 4.972360 0.386369 -3.403947 4.142615 1.022402 -0.751032 -0.704951 1.825933 11.773907 0.624382 10.840186 1.346287 -30.469285 -11.614195 5.698073 -38.645622 -9.797463 10.228640 13.649902 -47.862681 -5.120250 5.047956 -10.633176 -2.553457 27.732869 9.868309 5.944142 23.512431 -1.620444 8.667816 13.283688 19.013771 17.051984 5.280228 7.771766 9.215502 
-0.010986 0.363602 1.052986 -27.875241 0.641934 59.515632 13.806693 -0.886440 -24.912516 -7.232897 19.288418 87.161428 -10.820527 0.057559 7.403119 0.000000 -0.000000 0.000000 -14.618586 -9.957356 -14.804762 1.748938 -17.508925 85.526164 14.832132 0.528451 25.764907 0.000000 -0.000000 0.000000 -1.427755 3.267490 34.111256 5.002172 0.104455 -3.369630 3.829938 1.257266 -0.927850 -0.542640 1.885915 11.760934 1.021158 10.351264 2.249641 -29.798492 -13.166334 5.557736 -36.699805 -10.806204 11.072913 13.565589 -49.685425 -4.484149 5.456619 -11.177339 -2.270502 27.411318 11.363558 5.746386 20.198066 0.316072 8.113996 13.270073 19.095997 18.014504 4.501893 7.531303 10.451095 
-0.009784 0.364430 1.050903 -27.625643 1.088592 58.883737 13.914355 -1.728711 -26.483773 -5.194217 20.018851 90.110644 -9.171727 2.781774 10.410688 0.000000 -0.000000 0.000000 -14.808608 -9.200247 -14.433057 1.659436 -18.470715 85.688604 14.259881 0.597472 26.674524 0.000000 -0.000000 0.000000 -1.381313 3.540033 33.972410 5.323485 -0.308251 -2.389804 3.869272 1.410910 -1.425185 -0.656673 1.707911 11.950868 1.220908 10.050799 2.432693 -29.306659 -15.253471 5.637059 -34.850466 -12.415424 11.290266 13.101254 -50.190676 -3.972865 4.778635 -10.960403 -1.489526 27.093848 12.992040 5.959812 17.481423 1.777684 7.357014 12.902831 18.725954 18.655965 3.553052 7.811800 11.671431 
-0.008950 0.365119 1.049915 -27.386670 1.592167 58.478031 13.947397 -2.800319 -27.925154 -3.946226 20.073099 92.799430 -8.645535 4.342077 14.252870 0.000000 -0.000000 0.000000 -14.613005 -9.001163 -14.263935 1.561571 -18.989405 85.744465 13.364486 -0.114134 27.535408 0.000000 -0.000000 0.000000 -1.476368 4.030682 33.530569 5.768111 -0.667028 -1.602030 4.036678 1.482255 -1.677719 -0.431412 1.305720 12.008552 1.806154 9.701682 2.948248 -28.861943 -17.050937 5.508932 -33.552101 -14.468599 11.810934 12.578078 -49.673094 -4.116833 6.153602 -10.905327 -1.369689 26.823899 14.410762 5.823237 15.611118 2.949913 7.444869 12.564607 18.375333 19.241254 1.830322 8.127005 13.068417 
-0.008212 0.365565 1.049915 -27.271203 1.977692 58.235322 13.975154 -3.844037 -28.953126 -3.990817 20.135090 94.735005 -8.061937 4.087721 15.595045 0.000000 -0.000000 0.000000 -14.251469 -8.935977 -14.186111 1.914524 -18.943513 85.623518 13.153006 -0.287173 27.773439 0.000000 -0.000000 0.000000 -1.682291 4.708534 32.808625 6.164733 -0.996752 -0.955362 4.351842 1.390991 -1.785224 -0.150488 1.352709 12.350539 2.366594 9.917885 3.057766 -28.466583 -18.675656 5.489568 -32.955973 -16.106432 11.954753 12.529552 -49.368114 -5.151848 7.707665 -10.782739 -0.793104 26.503979 15.447060 5.982067 14.427786 3.720863 7.531182 12.498113 19.505185 19.948390 0.667718 7.917624 13.810512 
-0.007329 0.366090 1.050374 -27.362048 2.296335 57.973694 14.077157 -4.613266 -29.408668 -4.484278 20.030725 95.781063 -8.379970 3.737045 17.132633 0.000000 -0.000000 0.000000 -13.757337 -8.477465 -14.180652 1.954500 -18.922901 85.441020 13.087801 -0.313445 28.343072 0.000000 -0.000000 0.000000 -1.879605 5.219944 32.228992 6.483502 -1.106517 -0.366491 4.484428 1.353334 -2.067040 0.214924 1.599094 12.765753 2.576050 10.082343 2.846520 -27.972588 -19.920487 5.559334 -32.757560 -17.485465 12.062013 13.498043 -49.718006 -6.004281 7.086502 -10.539263 -0.900576 25.905270 15.882937 5.849415 14.449228 4.437957 7.529510 12.115635 21.560313 20.983581 2.563657 7.208012 12.772163 
-0.005736 0.366346 1.050362 -27.439322 2.543627 58.020924 14.104914 -5.114805 -29.830308 -4.924260 19.915711 96.425761 -8.551719 3.484181 20.765783 0.000000 -0.000000 0.000000 -13.677515 -8.274456 -14.431212 1.739684 -19.077652 85.399930 12.867580 0.014129 29.121671 0.000000 -0.000000 0.000000 -1.936740 5.508975 31.796974 6.604351 -1.288182 -0.248948 4.447300 1.296840 -2.176533 0.446881 1.705928 12.496727 2.755761 9.766100 2.832726 -27.625938 -20.212301 5.222120 -32.585583 -18.548221 12.163262 13.949085 -51.354785 -6.595031 8.184887 -10.506228 -1.033367 25.801916 15.693084 5.535411 14.824939 5.338300 6.952470 11.407254 24.613036 19.613545 -0.635882 7.866341 12.240036 
-0.004034 0.366924 1.049637 -27.596636 2.828815 57.865915 14.183393 -4.922561 -29.947953 -4.813552 19.348459 97.385458 -10.545201 3.060532 20.392146 0.000000 -0.000000 0.000000 -13.491655 -8.135714 -14.740222 1.517155 -19.171659 85.605583 13.111116 -0.065170 29.822969 0.000000 -0.000000 0.000000 -1.910113 5.631471 31.832132 6.638428 -1.459150 -0.358544 4.327089 1.289712 -1.953528 0.936236 1.928439 11.878753 2.874955 8.956675 2.773163 -27.404795 -20.152628 4.375150 -32.430989 -19.081297 12.658605 14.727831 -53.510893 -7.281825 9.282477 -10.868167 -1.042086 25.991532 15.378640 4.601136 15.196555 5.996786 6.836775 11.169224 28.861397 17.483360 -3.078123 7.718236 8.928346 
-0.002174 0.367199 1.048341 -27.718501 3.128567 57.769747 14.148270 -4.523636 -29.982002 -4.689232 18.709208 98.250972 -11.602636 2.472037 21.498480 0.000000 -0.000000 0.000000 -13.397477 -8.211094 -15.356783 1.113560 -19.182845 86.208196 13.471747 -0.049290 31.137695 0.000000 -0.000000 0.000000 -1.907219 5.631597 31.940936 6.532274 -1.748693 -0.196525 4.313902 1.294815 -2.312104 0.956176 2.093237 12.084849 3.173652 8.935612 1.834104 -27.712948 -20.105013 4.231945 -32.015252 -18.638902 12.387972 16.014510 -56.356401 -8.422040 9.306505 -10.534954 -0.915907 26.301506 15.432897 4.272681 15.926601 6.376525 6.178620 11.080867 33.191146 16.074913 -3.663306 7.334701 6.329296 
-0.000119 0.367158 1.046564 -27.967712 3.459667 57.450957 13.986602 -3.382069 -29.726095 -4.493065 17.432395 98.890496 -12.624076 1.756872 23.250521 0.000000 -0.000000 0.000000 -13.393238 -8.591332 -15.843771 0.175426 -19.137220 86.681638 13.456420 -0.523135 33.658892 0.000000 -0.000000 0.000000 -1.698356 5.656481 32.441634 6.338552 -1.969541 -0.024864 4.415798 1.177974 -2.846833 0.839034 2.235201 11.661168 3.388965 9.199565 1.340790 -28.339266 -19.984844 4.539921 -32.035728 -17.803821 11.760476 17.656488 -58.746567 -9.376419 9.928818 -10.433057 -1.320843 26.794524 15.592845 4.450024 16.851915 6.872975 5.401047 10.867455 37.215088 16.035328 -4.129326 7.093944 4.470572 
0.002160 0.366720 1.044876 -28.315293 3.782443 57.159705 13.809251 -2.485328 -29.356426 -4.531838 16.455610 99.113960 -13.730312 1.507436 24.358344 0.000000 -0.000000 0.000000 -13.155097 -8.497055 -16.408278 -0.487902 -18.815283 87.576596 13.965937 0.002246 34.687485 0.000000 -0.000000 0.000000 -1.540761 5.578025 33.169242 6.192715 -1.956437 -0.282248 4.538147 1.080807 -2.822958 0.984229 2.307483 10.228456 2.888899 9.378106 0.632307 -28.848460 -19.223743 3.977041 -33.220111 -17.292547 12.074692 19.051883 -60.013031 -9.923036 10.657675 -10.249902 -2.220935 27.429201 15.545219 4.085134 17.915709 7.637935 5.373714 11.345321 40.477387 16.104874 -5.895197 7.176264 1.907852 
0.004898 0.365790 1.042553 -28.653671 3.858758 57.235431 13.539607 -2.282975 -29.327001 -4.736060 16.147406 99.208166 -14.354926 0.828346 25.296262 0.000000 -0.000000 0.000000 -12.907006 -7.847273 -17.544574 -0.588816 -18.618958 88.922994 14.067791 0.845163 34.286807 0.000000 -0.000000 0.000000 -1.718823 5.474543 33.163966 6.245584 -1.832588 -0.144618 4.450663 1.095090 -3.124070 1.057387 2.648440 10.113577 2.307226 9.549339 -0.372433 -29.414095 -18.502737 4.311778 -34.871741 -16.910397 12.266958 20.071348 -60.184780 -11.074872 11.014417 -10.332976 -2.505514 28.151391 15.372088 4.618191 19.384424 8.540956 5.715297 11.137687 43.209547 15.312738 -6.720014 6.942454 0.047806 
0.007881 0.364672 1.039803 -29.193185 3.585758 57.496852 13.122318 -2.120118 -29.411894 -4.902027 15.991859 99.124803 -14.403499 -0.105405 25.366716 0.000000 -0.000000 0.000000 -12.822608 -7.314906 -19.350769 -1.346978 -17.849515 91.313864 14.863373 1.213195 33.706672 0.000000 -0.000000 0.000000 -1.929535 5.385590 32.915490 6.173291 -1.410406 -0.084842 4.187885 1.193604 -3.004834 1.093224 2.415361 8.274757 1.479844 9.114848 -0.393745 -30.035894 -17.479522 4.065222 -36.722321 -16.601337 13.028794 19.014602 -59.786767 -10.628054 10.651548 -10.063067 -2.409542 28.964515 14.919363 4.528679 21.464202 9.047772 6.900765 9.890086 45.759842 13.002785 -5.637071 6.901342 0.064807 
0.010442 0.363348 1.037815 -29.845448 3.164264 57.512168 12.752811 -2.032789 -28.757130 -4.675731 16.173628 98.677854 -15.679622 -0.017822 25.084514 0.000000 -0.000000 0.000000 -12.450655 -6.223474 -20.755548 -2.122376 -17.284125 93.321603 15.203483 1.513838 34.335037 0.000000 -0.000000 0.000000 -2.169055 5.156608 33.102119 5.761614 -0.842753 0.005389 4.197556 1.273569 -3.306779 0.385045 2.483332 8.152649 0.898802 9.499398 -1.815220 -30.771829 -16.927303 4.126929 -38.440955 -15.353352 13.210107 17.538425 -59.181615 -8.886949 9.016449 -9.619329 -1.965099 29.489280 15.171770 5.434893 23.033739 9.263744 7.137223 10.707787 47.336702 14.248691 -3.718678 6.606234 -2.353339 
0.012721 0.361519 1.036324 -30.457490 2.838842 57.613207 12.746683 -2.278070 -28.728385 -4.314601 16.575233 98.718439 -16.342861 -0.781287 25.636621 0.000000 -0.000000 0.000000 -12.088847 -5.019115 -21.868981 -2.717333 -17.337121 94.608867 15.473826 2.088491 35.937814 0.000000 -0.000000 0.000000 -2.212085 4.981274 33.064287 5.443045 -0.633631 0.400526 3.961821 1.564236 -3.564178 -0.027544 3.803618 8.788174 0.890358 10.217134 -4.122609 -30.895909 -16.412468 4.044164 -40.632447 -14.083877 13.987617 16.689900 -58.022460 -8.667034 6.884901 -9.405083 -1.611583 29.970233 14.957326 5.783852 25.160229 9.361255 8.139335 10.776252 48.815037 13.913867 -2.339872 6.672326 -2.660644 
